# Blender v2.80 (sub 75) OBJ File: ''
# www.blender.org
mtllib duck.mtl
o Plane
v -0.841395 0.446783 1.009107
v -0.584344 -0.336074 1.158857
v 0.711489 -0.187265 1.066072
v 0.522099 0.633722 1.009107
v 1.393080 0.644289 0.257531
v 1.251208 0.919888 0.257531
v -1.618014 0.376450 0.478188
v -1.760212 -0.245217 0.478188
v -2.464985 -0.003863 0.214441
v -2.233556 -0.086984 0.245378
v 1.800637 1.338348 0.302162
v 1.499216 1.486522 0.248748
v 2.582726 1.350688 0.293507
v 1.897149 1.685665 0.403770
v 2.890659 1.397308 0.252582
v 2.316098 1.606997 0.403770
v -0.294972 -0.803743 0.478188
v -0.071262 -0.764851 0.478188
v -0.818936 -0.557624 0.418544
v -1.760212 -0.245217 0.208171
v 0.874401 -0.371335 0.232970
v -0.071262 -0.764851 0.208171
v 2.582726 1.286157 0.208172
v 1.800637 1.252803 0.208172
v -2.502468 -0.154421 0.146188
v -2.901064 -0.077463 0.093353
v -0.841395 0.678871 0.739091
v 0.522099 0.840547 0.739091
v 1.345272 1.799201 0.208172
v 1.874573 1.880134 0.208172
v -1.618014 0.475289 0.208172
v 2.320434 1.638183 0.208172
v 2.953521 1.453742 0.208172
v 1.617110 0.519937 0.208172
v 1.187195 1.044240 0.208172
v -0.294972 -0.803743 0.208171
v -0.584344 -0.677320 -0.000000
v 1.000000 -0.513246 -0.000000
v -0.841395 0.857802 0.000000
v 0.522099 1.000000 0.000000
v 1.740477 0.519937 0.000000
v 1.187195 1.044240 0.000000
v -1.760212 -0.245217 -0.000000
v -1.618014 0.551490 0.000000
v -2.553239 -0.201464 -0.000000
v -3.239383 -0.077463 -0.000000
v 1.800637 1.252803 0.000000
v 1.263763 1.859144 0.000000
v 2.582726 1.284776 0.000000
v 1.857167 2.030061 0.000000
v 2.953521 1.469056 0.000000
v 2.323777 1.662226 0.000000
v -0.294972 -0.803743 -0.000000
v 0.080581 -0.764851 -0.000000
v -0.841395 0.446783 -1.009107
v -0.584344 -0.336074 -1.158857
v 0.711489 -0.187265 -1.066072
v 0.522099 0.633722 -1.009107
v 1.393080 0.644289 -0.257531
v 1.251208 0.919888 -0.257531
v -1.618014 0.376450 -0.478188
v -1.760212 -0.245217 -0.478188
v -2.464985 -0.003863 -0.214441
v -2.233556 -0.086984 -0.245378
v 1.800637 1.338348 -0.302162
v 1.499216 1.486522 -0.248748
v 2.582726 1.350688 -0.293506
v 1.897149 1.685665 -0.403770
v 2.890659 1.397308 -0.252582
v 2.316098 1.606997 -0.403770
v -0.294972 -0.803743 -0.478188
v -0.071262 -0.764851 -0.478188
v -0.818936 -0.557624 -0.418544
v -1.760212 -0.245217 -0.208172
v 0.874401 -0.371335 -0.232970
v -0.071262 -0.764851 -0.208172
v 2.582726 1.286157 -0.208172
v 1.800637 1.252803 -0.208172
v -2.502468 -0.154421 -0.146188
v -2.901064 -0.077463 -0.093353
v -0.841395 0.678871 -0.739091
v 0.522099 0.840547 -0.739091
v 1.345272 1.799201 -0.208172
v 1.874573 1.880134 -0.208172
v -1.618014 0.475289 -0.208172
v 2.320434 1.638183 -0.208172
v 2.953521 1.453742 -0.208172
v 1.617110 0.519937 -0.208172
v 1.187195 1.044240 -0.208172
v -0.294972 -0.803743 -0.208172
vt 0.000000 0.000000
vt 1.000000 0.000000
vt 1.000000 1.000000
vt 0.000000 1.000000
vt 1.000000 0.000000
vt 1.000000 1.000000
vt 0.000000 1.000000
vt 0.000000 0.000000
vt 0.000000 1.000000
vt 0.000000 0.000000
vt 1.000000 0.000000
vt 1.000000 1.000000
vt 1.000000 0.000000
vt 1.000000 1.000000
vt 1.000000 0.000000
vt 1.000000 1.000000
vt 0.000000 0.000000
vt 1.000000 0.000000
vt 0.000000 0.000000
vt 0.000000 0.000000
vt 1.000000 0.000000
vt 1.000000 0.000000
vt 1.000000 0.000000
vt 1.000000 0.000000
vt 0.000000 1.000000
vt 0.000000 0.000000
vt 1.000000 1.000000
vt 0.000000 1.000000
vt 1.000000 1.000000
vt 1.000000 1.000000
vt 0.000000 1.000000
vt 1.000000 0.000000
vt 1.000000 1.000000
vt 1.000000 0.000000
vt 1.000000 1.000000
vt 0.000000 0.000000
vt 0.000000 0.000000
vt 0.000000 0.000000
vt 0.000000 1.000000
vt 0.000000 1.000000
vt 1.000000 1.000000
vt 1.000000 1.000000
vt 1.000000 0.000000
vt 1.000000 0.000000
vt 1.000000 0.000000
vt 1.000000 1.000000
vt 1.000000 1.000000
vt 1.000000 1.000000
vt 1.000000 0.000000
vt 1.000000 0.000000
vt 1.000000 0.000000
vt 0.000000 0.000000
vt 0.000000 0.000000
vt 0.000000 1.000000
vt 0.000000 0.000000
vt 0.000000 1.000000
vt 1.000000 1.000000
vt 1.000000 0.000000
vt 1.000000 1.000000
vt 1.000000 0.000000
vt 0.000000 0.000000
vt 0.000000 1.000000
vt 0.000000 0.000000
vt 0.000000 1.000000
vt 1.000000 1.000000
vt 1.000000 0.000000
vt 1.000000 1.000000
vt 1.000000 0.000000
vt 1.000000 1.000000
vt 1.000000 0.000000
vt 1.000000 0.000000
vt 0.000000 0.000000
vt 0.000000 0.000000
vt 0.000000 0.000000
vt 1.000000 0.000000
vt 1.000000 0.000000
vt 1.000000 0.000000
vt 1.000000 0.000000
vt 0.000000 1.000000
vt 0.000000 0.000000
vt 1.000000 1.000000
vt 0.000000 1.000000
vt 1.000000 1.000000
vt 1.000000 1.000000
vt 0.000000 1.000000
vt 1.000000 0.000000
vt 1.000000 1.000000
vt 1.000000 0.000000
vt 1.000000 1.000000
vt 0.000000 0.000000
vn 0.0178 0.1327 0.9910
vn 0.6342 0.2299 0.7382
vn -0.5263 0.0475 0.8490
vn -0.3515 -0.0034 0.9362
vn -0.0981 0.0227 0.9949
vn -0.0725 -0.2614 0.9625
vn 0.0364 -0.3627 0.9312
vn 0.1341 -0.7898 0.5986
vn -0.2881 -0.9192 0.2685
vn 0.4215 -0.8823 0.2095
vn 0.0259 -0.7666 0.6416
vn -0.2121 -0.3592 0.9088
vn -0.0987 0.7722 0.6276
vn -0.2529 0.3347 0.9078
vn -0.4190 0.7475 0.5155
vn 0.3291 0.8536 0.4038
vn -0.2702 -0.8930 0.3599
vn 0.7753 -0.4076 0.4824
vn 0.3058 -0.9295 0.2062
vn 0.3483 0.6847 0.6402
vn 0.3078 0.8303 0.4646
vn 0.3952 -0.1918 0.8984
vn -0.2391 0.0799 0.9677
vn -0.4526 0.7603 0.4659
vn -0.4338 -0.8538 0.2879
vn -0.4121 -0.9109 0.0197
vn -0.3761 0.8947 0.2410
vn -0.9669 0.1445 0.2101
vn 0.1286 -0.9906 0.0469
vn 0.9468 -0.1574 0.2806
vn 0.5279 0.7899 0.3122
vn -0.1167 0.9794 0.1649
vn 0.4285 -0.9030 -0.0302
vn 0.6693 -0.5088 0.5414
vn -0.0922 -0.9853 0.1440
vn 0.2853 0.9540 0.0925
vn -0.3306 0.7579 0.5625
vn -0.1923 0.8572 0.4778
vn -0.1080 0.9691 0.2218
vn -0.1830 -0.8650 0.4671
vn 0.0417 -0.9991 0.0033
vn 0.2862 -0.8449 0.4518
vn -0.3360 -0.9403 0.0538
vn 0.0178 0.1327 -0.9910
vn 0.6342 0.2299 -0.7382
vn -0.5263 0.0475 -0.8490
vn -0.3515 -0.0034 -0.9362
vn -0.0981 0.0227 -0.9949
vn -0.0725 -0.2614 -0.9625
vn 0.0364 -0.3627 -0.9312
vn 0.1341 -0.7898 -0.5986
vn -0.2881 -0.9192 -0.2685
vn 0.4215 -0.8823 -0.2095
vn 0.0259 -0.7666 -0.6416
vn -0.2121 -0.3592 -0.9088
vn -0.0987 0.7722 -0.6276
vn -0.2529 0.3347 -0.9078
vn -0.4190 0.7475 -0.5155
vn 0.3291 0.8536 -0.4038
vn -0.2702 -0.8930 -0.3599
vn 0.7753 -0.4076 -0.4824
vn 0.3058 -0.9295 -0.2062
vn 0.3483 0.6847 -0.6402
vn 0.3078 0.8303 -0.4646
vn 0.3952 -0.1918 -0.8984
vn -0.2391 0.0799 -0.9677
vn -0.4526 0.7603 -0.4659
vn -0.4338 -0.8538 -0.2879
vn -0.4121 -0.9109 -0.0197
vn -0.3761 0.8947 -0.2410
vn -0.9669 0.1445 -0.2101
vn 0.1286 -0.9906 -0.0469
vn 0.9468 -0.1574 -0.2806
vn 0.5279 0.7899 -0.3122
vn -0.1167 0.9794 -0.1649
vn 0.4285 -0.9030 0.0302
vn 0.6693 -0.5088 -0.5414
vn -0.0922 -0.9853 -0.1440
vn 0.2853 0.9540 -0.0925
vn -0.3306 0.7579 -0.5625
vn -0.1923 0.8572 -0.4778
vn -0.1080 0.9691 -0.2218
vn -0.1830 -0.8650 -0.4671
vn 0.0417 -0.9991 -0.0033
vn 0.2862 -0.8449 -0.4518
vn -0.3360 -0.9403 -0.0538
usemtl Legs
s off
f 2/1/1 3/2/1 4/3/1 1/4/1
f 4/3/2 3/2/2 5/5/2 6/6/2
f 2/1/3 1/4/3 7/7/3 8/8/3
f 8/8/4 7/7/4 9/9/4 10/10/4
f 6/6/5 5/5/5 11/11/5 12/12/5
f 12/12/6 11/11/6 13/13/6 14/14/6
f 14/14/7 13/13/7 15/15/7 16/16/7
f 3/2/8 2/1/8 17/17/8 18/18/8
f 20/19/9 19/20/9 2/1/9 8/8/9
f 22/21/10 21/22/10 3/2/10 18/18/10
f 24/23/11 23/24/11 13/13/11 11/11/11
f 26/25/12 25/26/12 10/10/12 9/9/12
f 28/27/13 27/28/13 1/4/13 4/3/13
f 30/29/14 29/30/14 12/12/14 14/14/14
f 31/31/15 26/25/15 9/9/15 7/7/15
f 33/32/16 32/33/16 16/16/16 15/15/16
f 25/26/17 20/19/17 8/8/17 10/10/17
f 21/22/18 34/34/18 5/5/18 3/2/18
f 23/24/19 33/32/19 15/15/19 13/13/19
f 35/35/20 28/27/20 4/3/20 6/6/20
f 32/33/21 30/29/21 14/14/21 16/16/21
f 34/34/22 24/23/22 11/11/22 5/5/22
f 29/30/23 35/35/23 6/6/23 12/12/23
f 27/28/24 31/31/24 7/7/24 1/4/24
f 19/20/25 36/36/25 17/17/25 2/1/25
f 37/37/26 53/38/26 36/36/26 19/20/26
f 39/39/27 44/40/27 31/31/27 27/28/27
f 48/41/28 42/42/28 35/35/28 29/30/28
f 53/38/29 54/43/29 22/21/29 36/36/29
f 41/44/30 47/45/30 24/23/30 34/34/30
f 52/46/31 50/47/31 30/29/31 32/33/31
f 42/42/32 40/48/32 28/27/32 35/35/32
f 49/49/33 51/50/33 33/32/33 23/24/33
f 38/51/34 41/44/34 34/34/34 21/22/34
f 45/52/35 43/53/35 20/19/35 25/26/35
f 51/50/36 52/46/36 32/33/36 33/32/36
f 44/40/37 46/54/37 26/25/37 31/31/37
f 50/47/38 48/41/38 29/30/38 30/29/38
f 40/48/39 39/39/39 27/28/39 28/27/39
f 46/54/40 45/52/40 25/26/40 26/25/40
f 47/45/41 49/49/41 23/24/41 24/23/41
f 54/43/42 38/51/42 21/22/42 22/21/42
f 43/53/43 37/37/43 19/20/43 20/19/43
f 56/55/44 55/56/44 58/57/44 57/58/44
f 58/57/45 60/59/45 59/60/45 57/58/45
f 56/55/46 62/61/46 61/62/46 55/56/46
f 62/61/47 64/63/47 63/64/47 61/62/47
f 60/59/48 66/65/48 65/66/48 59/60/48
f 66/65/49 68/67/49 67/68/49 65/66/49
f 68/67/50 70/69/50 69/70/50 67/68/50
f 57/58/51 72/71/51 71/72/51 56/55/51
f 74/73/52 62/61/52 56/55/52 73/74/52
f 76/75/53 72/71/53 57/58/53 75/76/53
f 78/77/54 65/66/54 67/68/54 77/78/54
f 80/79/55 63/64/55 64/63/55 79/80/55
f 82/81/56 58/57/56 55/56/56 81/82/56
f 84/83/57 68/67/57 66/65/57 83/84/57
f 85/85/58 61/62/58 63/64/58 80/79/58
f 87/86/59 69/70/59 70/69/59 86/87/59
f 79/80/60 64/63/60 62/61/60 74/73/60
f 75/76/61 57/58/61 59/60/61 88/88/61
f 77/78/62 67/68/62 69/70/62 87/86/62
f 89/89/63 60/59/63 58/57/63 82/81/63
f 86/87/64 70/69/64 68/67/64 84/83/64
f 88/88/65 59/60/65 65/66/65 78/77/65
f 83/84/66 66/65/66 60/59/66 89/89/66
f 81/82/67 55/56/67 61/62/67 85/85/67
f 73/74/68 56/55/68 71/72/68 90/90/68
f 37/37/69 73/74/69 90/90/69 53/38/69
f 39/39/70 81/82/70 85/85/70 44/40/70
f 48/41/71 83/84/71 89/89/71 42/42/71
f 53/38/72 90/90/72 76/75/72 54/43/72
f 41/44/73 88/88/73 78/77/73 47/45/73
f 52/46/74 86/87/74 84/83/74 50/47/74
f 42/42/75 89/89/75 82/81/75 40/48/75
f 49/49/76 77/78/76 87/86/76 51/50/76
f 38/51/77 75/76/77 88/88/77 41/44/77
f 45/52/78 79/80/78 74/73/78 43/53/78
f 51/50/79 87/86/79 86/87/79 52/46/79
f 44/40/80 85/85/80 80/79/80 46/54/80
f 50/47/81 84/83/81 83/84/81 48/41/81
f 40/48/82 82/81/82 81/82/82 39/39/82
f 46/54/83 80/79/83 79/80/83 45/52/83
f 47/45/84 78/77/84 77/78/84 49/49/84
f 54/43/85 76/75/85 75/76/85 38/51/85
f 43/53/86 74/73/86 73/74/86 37/37/86
o Plane.001
v -0.294972 -0.803743 0.478188
v -0.071262 -0.764851 0.478188
v -0.071262 -0.764851 0.208171
v -0.294972 -0.803743 0.208171
v -0.191140 -1.669213 0.367671
v 0.184413 -1.767480 0.478187
v 0.184413 -1.767480 0.208171
v -0.191140 -1.669213 0.312077
v -0.221840 -1.509926 0.295032
v -0.221840 -1.509926 0.391327
v 0.037770 -1.529585 0.429865
v 0.037770 -1.529585 0.256494
v 0.789171 -1.699877 0.655130
v 0.787343 -1.707047 0.027856
v 0.459403 -1.657933 0.545164
v 0.459403 -1.657933 0.141195
v -0.294972 -0.803743 -0.478188
v -0.071262 -0.764851 -0.478188
v -0.071262 -0.764851 -0.208172
v -0.294972 -0.803743 -0.208172
v -0.191140 -1.669213 -0.367671
v 0.184413 -1.767480 -0.478188
v 0.184413 -1.767480 -0.208172
v -0.191140 -1.669213 -0.312077
v -0.221840 -1.509926 -0.295033
v -0.221840 -1.509926 -0.391327
v 0.037770 -1.529585 -0.429865
v 0.037770 -1.529585 -0.256494
v 0.789171 -1.699877 -0.655130
v 0.787343 -1.707047 -0.027856
v 0.459403 -1.657933 -0.545164
v 0.459403 -1.657933 -0.141195
vt 0.000000 0.000000
vt 0.000000 0.000000
vt 0.000000 0.000000
vt 0.000000 0.000000
vt 1.000000 0.000000
vt 1.000000 0.000000
vt 1.000000 0.000000
vt 1.000000 0.000000
vt 1.000000 0.000000
vt 1.000000 0.000000
vt 0.000000 0.000000
vt 1.000000 0.000000
vt 1.000000 0.000000
vt 0.000000 0.000000
vt 1.000000 0.000000
vt 1.000000 0.000000
vt 0.000000 0.000000
vt 0.000000 0.000000
vt 0.000000 0.000000
vt 0.000000 0.000000
vt 1.000000 0.000000
vt 1.000000 0.000000
vt 1.000000 0.000000
vt 1.000000 0.000000
vt 1.000000 0.000000
vt 1.000000 0.000000
vt 0.000000 0.000000
vt 1.000000 0.000000
vt 1.000000 0.000000
vt 0.000000 0.000000
vt 1.000000 0.000000
vt 1.000000 0.000000
vn -0.9819 -0.1893 0.0000
vn -0.2531 -0.9674 0.0000
vn 0.2912 0.9567 0.0000
vn -0.2362 -0.0452 0.9707
vn -0.2228 -0.0227 -0.9746
vn -0.0751 -0.1005 -0.9921
vn -0.0751 -0.1005 0.9921
vn 0.9900 0.1411 0.0000
vn -0.9947 -0.1030 0.0000
vn 0.1371 0.9905 -0.0071
vn 0.1054 -0.9944 0.0077
vn -0.2681 0.0863 0.9595
vn -0.2703 0.0927 -0.9583
vn -0.2362 -0.0452 -0.9707
vn -0.2228 -0.0227 0.9746
vn 0.1371 0.9905 0.0071
vn 0.1054 -0.9944 -0.0077
vn -0.2681 0.0863 -0.9595
vn -0.2703 0.0927 0.9583
usemtl Material.001
s off
f 100/91/87 99/92/87 98/93/87 95/94/87
f 98/93/88 97/95/88 96/96/88 95/94/88
f 102/97/89 101/98/89 105/99/89 106/100/89
f 101/98/90 100/91/90 95/94/90 96/96/90
f 99/92/91 102/97/91 97/95/91 98/93/91
f 94/101/92 93/102/92 102/97/92 99/92/92
f 92/103/93 91/104/93 100/91/93 101/98/93
f 93/102/94 92/103/94 101/98/94 102/97/94
f 91/104/95 94/101/95 99/92/95 100/91/95
f 106/100/96 105/99/96 103/105/96 104/106/96
f 96/96/97 97/95/97 104/106/97 103/105/97
f 101/98/98 96/96/98 103/105/98 105/99/98
f 97/95/99 102/97/99 106/100/99 104/106/99
f 116/107/87 111/108/87 114/109/87 115/110/87
f 114/109/88 111/108/88 112/111/88 113/112/88
f 118/113/89 122/114/89 121/115/89 117/116/89
f 117/116/100 112/111/100 111/108/100 116/107/100
f 115/110/101 114/109/101 113/112/101 118/113/101
f 110/117/93 115/110/93 118/113/93 109/118/93
f 108/119/92 117/116/92 116/107/92 107/120/92
f 109/118/94 118/113/94 117/116/94 108/119/94
f 107/120/95 116/107/95 115/110/95 110/117/95
f 122/114/102 120/121/102 119/122/102 121/115/102
f 112/111/103 119/122/103 120/121/103 113/112/103
f 117/116/104 121/115/104 119/122/104 112/111/104
f 113/112/105 120/121/105 122/114/105 118/113/105
